<?xml version="1.0" encoding="UTF-8" standalone="no"?> <svg width="60" height="60" viewBox="0 0 60 60" fill="none" xmlns="http://www.w3.org/2000/svg">
<path d="M30.0009 59.8376C29.7812 59.8379 29.5676 59.7659 29.393 59.6326C29.2184 59.4994 29.0926 59.3123 29.0349 59.1004C28.9772 58.8885 28.9909 58.6635 29.0739 58.4601C29.1569 58.2568 29.3045 58.0864 29.494 57.9753C45.9593 48.322 54.4203 35.0583 55.3607 17.4285C55.3741 17.0634 55.2864 16.7017 55.1072 16.3834C54.9279 16.0651 54.6642 15.8026 54.3451 15.6248L30.9837 2.41968C30.683 2.25127 30.3441 2.16293 29.9995 2.1631C29.6548 2.16328 29.316 2.25197 29.0155 2.42068L5.65561 15.6248C5.33598 15.8028 5.07183 16.0658 4.89241 16.3846C4.71299 16.7035 4.62529 17.0658 4.63901 17.4314C5.50131 33.6052 12.6615 46.0466 26.5277 55.4666C26.6363 55.5404 26.7293 55.6348 26.8014 55.7446C26.8735 55.8543 26.9233 55.9772 26.948 56.1062C26.9726 56.2352 26.9715 56.3678 26.9449 56.4964C26.9183 56.625 26.8666 56.7471 26.7928 56.8557C26.719 56.9643 26.6245 57.0573 26.5148 57.1295C26.405 57.2016 26.2822 57.2514 26.1532 57.276C26.0242 57.3006 25.8916 57.2996 25.763 57.273C25.6344 57.2463 25.5123 57.1946 25.4037 57.1208C10.9852 47.3259 3.53985 34.3777 2.64194 17.5378C2.60996 16.8009 2.78263 16.0695 3.14081 15.4247C3.49899 14.7799 4.0287 14.2468 4.67124 13.8845L28.0316 0.679448C28.6325 0.341719 29.3102 0.164238 29.9995 0.164063C30.6888 0.163888 31.3665 0.341025 31.9676 0.678448L55.3294 13.8845C55.9715 14.2466 56.5007 14.7792 56.8587 15.4235C57.2167 16.0678 57.3894 16.7985 57.3578 17.5349C56.3788 35.8884 47.5956 49.6804 30.5058 59.6999C30.3528 59.7903 30.1785 59.8378 30.0009 59.8376V59.8376ZM26.3226 38.5974L42.1049 22.8162C42.2924 22.6287 42.3977 22.3743 42.3977 22.1091C42.3977 21.8439 42.2924 21.5896 42.1049 21.4021C41.9173 21.2146 41.663 21.1092 41.3978 21.1092C41.1326 21.1092 40.8783 21.2146 40.6908 21.4021L25.6156 36.4763L19.3089 30.1697C19.2161 30.0768 19.1059 30.0032 18.9845 29.9529C18.8632 29.9027 18.7332 29.8768 18.6019 29.8768C18.4706 29.8768 18.3406 29.9027 18.2192 29.9529C18.0979 30.0032 17.9877 30.0768 17.8949 30.1697C17.802 30.2625 17.7283 30.3728 17.6781 30.4941C17.6278 30.6154 17.602 30.7454 17.602 30.8767C17.602 31.008 17.6278 31.1381 17.6781 31.2594C17.7283 31.3807 17.802 31.4909 17.8949 31.5838L24.9085 38.5974C25.0014 38.6903 25.1116 38.764 25.2329 38.8143C25.3542 38.8645 25.4842 38.8904 25.6156 38.8904C25.7469 38.8904 25.8769 38.8645 25.9982 38.8143C26.1195 38.764 26.2297 38.6903 26.3226 38.5974L26.3226 38.5974Z" fill="black"/>
</svg>
